<svg id="Layer_1" data-name="Layer 1" xmlns="http://www.w3.org/2000/svg" viewBox="0 0 2224 1668"><defs><style>.cls-1{fill:#fafafa;}.cls-2{fill:#fe00fd;}.cls-3{fill:#fe02fd;}.cls-4{fill:#fe8b00;}.cls-5{fill:#f6edf5;}.cls-6{fill:#f7e9f5;}.cls-7{fill:#f6ecf5;}.cls-8{fill:#f8ddf6;}.cls-9{fill:#f5ecf4;}.cls-10{fill:#f6eaf5;}.cls-11{fill:#f9d2f7;}.cls-12{fill:#ddf600;}.cls-13{fill:#facef7;}.cls-14{fill:#00fa00;}.cls-15{fill:#f7e8f5;}.cls-16{fill:#f9cff7;}.cls-17{fill:#f8dff6;}.cls-18{fill:#f6e9f5;}.cls-19{fill:#f8def6;}.cls-20{fill:#007a8b;}.cls-21{fill:#f9e700;}.cls-22{fill:#fe7e00;}.cls-23{fill:#fe0000;}</style></defs><path class="cls-1" d="M1014.59,1667.91q-553.71,0-1107.41.09c-3.75,0-4.59-.84-4.59-4.59q.15-829.41,0-1658.82c0-3.75.84-4.59,4.59-4.59Q1014.59.15,2122,0c3.74,0,4.59.84,4.59,4.59q-.15,829.41,0,1658.82c0,3.75-.85,4.59-4.59,4.59Q1568.29,1667.85,1014.59,1667.91Z" transform="translate(97.41 0)"/><path class="cls-2" d="M648.91,449.68c-22.51-.32-44.89-1.89-67-6.73-2.74-.6-5.35-3.55-8.43-1.29a17.39,17.39,0,0,0-7.24,11.52c-1.3,8.85-2.67,17.78-2.81,26.69-.34,21.14-1.17,42.29-.12,63.42.8,16.06,1.48,32.11,3.78,48.11a361.86,361.86,0,0,0,11.66,54.39c4.61,15.1,9.86,30,13.49,45.4,2,8.54-.36,16.84-2.66,24.95-.73,2.56-3.63,4.18-6.25,5.48a93.3,93.3,0,0,1-47.25,9.92c-27.51-1.44-54.81-3.69-81.56-10.55-18.65-4.78-37.49-9-55.49-16-16-6.19-29.47-15.45-33.59-33.4-3-13.2-1-26.35,4.31-38.62,19.85-45.7,33.9-93.23,44.86-141.7,6-26.33,8.74-53.21,12-80,3.29-27.27,6.55-54.55,7.65-82,1.2-30,1.33-59.92-1.2-89.85-.6-7.12-.92-14.3-.91-21.45,0-17-5.19-33.17-8-49.71-2.52-14.76-5.62-29.39-5.78-44.51-.09-7.61,2.61-13,8.62-16.77,9.82-6.25,19.74-12.35,29.81-18.19,26.57-15.4,54.21-28.43,84-36.32,21.34-5.64,43.2-7.78,65.14-9.37,27.19-2,54.2-1.14,81.07,4,48.71,9.29,89.74,31.47,121.13,70.51,17.66,22,32.64,45.46,41,72.57,13.45,43.68,11.22,86.82-6.33,129-15.49,37.19-39,68.46-71.5,92.49-31.12,23-65.86,36.45-104.92,37.58-3,.09-6,.34-9,.42C654.58,449.74,651.74,449.68,648.91,449.68Z" transform="translate(97.41 0)"/><path class="cls-2" d="M791.52,1013.55c-.77,10,1.87,19.55,4.23,29.06,4.8,19.4,8.08,39.15,13.76,58.32C816,1123,824.9,1144.22,833,1165.74c9,24,20.86,46.86,29.39,71.06,1.66,4.71,2.75,9.61,4.41,14.32,4.18,11.89,2.62,23.41-2.6,34.42-4.4,9.27-11.91,15-22.35,16.32-25.83,3.29-51.51,1.46-77.13-2.21-20.26-2.9-40.72-4.21-60.91-7.68q-17.47-3-34.59-7.71c-9.61-2.64-17.34-8.3-24.48-14.94a17.78,17.78,0,0,1-4.91-8.57c-5-18.29-3.64-35.74,5.9-52.57,12.38-21.86,25.39-43.36,34.11-67.17,12.7-34.69,20.62-70.21,21.72-107.22.43-14.48,2.62-28.89,2.38-43.39-.52-30.45.91-61-2.77-91.32-3-24.47-6.56-48.82-12.44-72.8-3-12.12-8.86-22.93-14.36-33.95a22,22,0,0,1-2.39-13c.83-6.33,4.31-9.79,10.35-11.18,12.2-2.79,24.67-3.77,37-5.73,24.65-3.94,49.52-6.33,74.14-10.51,18-3.06,36.3-4.89,54.33-8,21.32-3.69,42.5-8.17,62.41-17.14a16.8,16.8,0,0,1,18.26,3.38,33.59,33.59,0,0,1,11,23.39c1.09,22.45,3.87,44.8,3.85,67.31a50.46,50.46,0,0,1-3.21,18.08c-4.49,11.8-17.55,16.58-28.55,12.39-25.1-9.56-50.9-16.79-78.13-17.2-15.41-.23-30.49,2.33-45.59,4.89-4.54.77-4.53,4.53-4,7.85a579.85,579.85,0,0,1,6.85,70.46,30.29,30.29,0,0,0,3,11.47,6.34,6.34,0,0,0,5.27,4c17.41,1.69,34.74,3.79,51.8-2.85,8-3.13,16.68.56,18.6,10.88,2.48,13.38,1.84,25.33-4.81,37a27.49,27.49,0,0,1-4.55,5.9c-3.11,3.07-6.38,3.85-10.78,1.64-12.76-6.43-26.13-9.92-40.5-5.9a30.36,30.36,0,0,0-9.74,4.93c-4,2.89-6.34,6.45-6.3,11.72C792.67,1001.91,791.92,1007.73,791.52,1013.55Z" transform="translate(97.41 0)"/><path class="cls-2" d="M1324.61,1160c0,21.48-.39,40.8-3.76,59.9-13.15,74.41-11.5,149.54-11.08,224.61,0,7.82,1,15.61,0,23.45-.66,4.93-2.47,8.75-6.83,11.5-6,3.82-12,7.75-17.68,12.11-5.93,4.6-12,4.56-18.26,1.54a276.12,276.12,0,0,0-36-14.78c-29.11-9.33-58.84-10.95-88.88-6-50,8.27-92.48,31.57-129.38,65.74-10.38,9.62-20.09,20-31.16,28.84-8,6.43-18.41,6.38-25.72-1.08a86.89,86.89,0,0,1-18.2-27.24c-2.26-5.37-4.57-10.73-6.5-16.22-5.78-16.46-16.15-29.69-28.6-41.56-3.61-3.44-7.08-7.06-10.33-10.84a19.81,19.81,0,0,1,1.63-26.92c8.58-7.91,18.31-14.38,27.65-21.32a249.64,249.64,0,0,1,66.24-35.18c23.67-8.31,48.24-10.69,73.28-9,13.8.92,27.51,2.33,41.18,4.36,17.76,2.64,35.13,7,52.33,12a354.85,354.85,0,0,1,37.7,12.77,268.49,268.49,0,0,1,38.83,20.4c1.83,1.15,3.61,2.41,5.51,3.42,7.71,4.1,13.53.77,13.2-7.89-.36-9.31-1.94-18.59-1.88-27.88.2-31.64.41-63.29,2.61-94.89.34-4.79-.22-9.64-.38-14.46-.1-3-1.47-4-4.62-4.49-10.49-1.57-21.36-1.61-31.3-5.74a71.18,71.18,0,0,1-35.39-31.05c-5.36-9.39-10.35-19-13-29.56-.33-1.31-.5-2.86-2.09-3s-2,1.51-2.75,2.55c-7.46,11-14.6,22.31-23.65,32-17.46,18.76-36.95,34.63-63,40.11a26.28,26.28,0,0,1-16.56-2.16c-4.87-2.24-5.46-7.38-4.89-12.1,1.16-9.69,1.7-19.08-2.8-28.33-2.65-5.42,1.32-11.53,7.29-12.8a27.5,27.5,0,0,1,9.91-.12c14,2,28.34,3.54,40.57-5.22,11.61-8.32,22.43-17.85,29.93-30.42,7.74-13,16.74-25.37,19.46-40.68,2.16-12.11,3.35-24.41,5.85-36.45,2.28-11,3.46-22.36,8.72-32.63a49.12,49.12,0,0,1,9.11-11.79c3.84-3.9,9.22-4.23,12.9-.32,8.13,8.62,17.17,16.17,26,24,6.72,6,9,13.88,4.56,22.63-2.7,5.34-5.37,10.7-8.06,16-11.5,22.83-13.64,46.42-4.69,70.46,5.19,13.93,16.35,22,30.3,26,8,2.32,20-4.1,23.38-12.6,7.12-17.93,12.23-36.39,10-56-1.26-11-6-21-10.41-31.12-2.83-6.46-5.4-13-2.43-20.17a9.1,9.1,0,0,1,1.54-3.1c9.59-9.41,19.39-18.67,30.64-26,5.88-3.85,11.54-1.87,15.17,4.17a102.38,102.38,0,0,1,14.13,42.27C1325.16,1140.68,1324,1151.42,1324.61,1160Z" transform="translate(97.41 0)"/><path class="cls-2" d="M1292.62,806c1-25.77,3.7-52.78,6.38-79.8.45-4.47.93-8.94,1.4-13.41.57-5.25-.12-5.8-4.89-3.64a100.33,100.33,0,0,1-35.68,8.85c-32.88,1.93-58.21-12.28-78.06-37.48-16.21-20.59-23-44.93-25.73-70.33-5.08-48.31,7.33-92.77,32.65-133.7a94.58,94.58,0,0,1,36.4-34.17c26.38-14,52.08-9.93,77.26,3.47a102.15,102.15,0,0,1,21.74,15.81,9.33,9.33,0,0,0,8.12,2.52c11.28-1.18,22.62-2.45,33.73,1,8.77,2.71,17.74,5.39,22.09,14.73,2.9,6.23,3.81,12.73,1.51,19.38-9.28,26.7-14.2,54.3-17.88,82.25-3.59,27.28-3.81,54.83-7.15,82.06-5.09,41.55-5.24,83.4-9.32,125-3.31,33.69-2.28,67.57-.06,101.38.63,9.47.3,19-4,27.87-5.33,11.18-17,15.77-28.45,10.83-19.12-8.27-38.36-16.41-58.83-20.65-26.73-5.54-53.73-8.49-80.65-1.06-26.21,7.23-50,19.21-70,38-3.65,3.41-7.17,7-10.77,10.44-15.89,15.29-30.81,9.33-40.6-6.89-4.24-7-5.6-15.29-7.89-23.08-7.34-25-17.87-48.3-34.16-68.87a171.2,171.2,0,0,1-14.36-21c-9.16-16-1.71-33.27,16-38.71,13.86-4.26,28.25-4.58,42.45-5.54,41-2.79,81.41,2.72,121.58,10.35,16,3.05,32.19,5.43,47.84,10.22a339.53,339.53,0,0,1,41,15.68c2.56,1.16,5,2.62,7.94,2.85,6.49.52,8.5-1.13,9.52-7.48C1292.63,817.67,1292.65,812.52,1292.62,806Z" transform="translate(97.41 0)"/><path class="cls-2" d="M1445.49,714.85c29.94.6,57.58,3.29,84.62,10.33,21.5,5.6,43.38,10,63.69,19.55,5.47,2.57,8.87,5.71,9.33,12.55.74,10.9.28,21.52-4.87,31.14-20.07,37.46-33.35,77.66-48.2,117.25-10.42,27.76-20.84,55.49-28,84.31-5.55,22.21-6,44.79-5.07,67.49.24,5.82.26,11.65.35,17.47.37,23.48.38,47,1.17,70.44a493.85,493.85,0,0,0,6.37,64.55c2.83,16.93,9.67,32.38,18.49,47,2.8,4.65,6,9.09,6.74,14.83,1.5,11.15-3,17.63-14.23,19.21-6.43.91-12.92,1.37-19.39,1.81-4.77.33-9.25,1.39-13.14,4.18-4.06,2.91-8.49,3.6-13.29,3-6.73-.88-10.21-4.45-10.23-11.26,0-6.48.57-13,.69-19.45,0-2,1.12-4.89-1.08-6-2.48-1.27-3.54,1.79-5,3.11-14.1,12.61-30.26,21.11-49.08,23.75-16.34,2.28-30.86-3.26-44.21-12.12-19.82-13.15-30.8-32.78-38.53-54.46-10.6-29.72-12.71-60.4-9.27-91.59,3.7-33.67,14.14-65.23,30.44-94.83,7.51-13.63,17.61-25.43,31.16-33.09a42.86,42.86,0,0,1,37.11-3c8.83,3.31,18,6,25.06,12.82.72.71,1.55,1.42,2.63.88s.74-1.75.75-2.68a204.31,204.31,0,0,0-1.94-32.88c-2.15-14.46-4.2-28.94-6.62-43.36-4.34-25.85-9.84-51.42-17.7-76.49-7.27-23.19-15.55-46-24.59-68.55-4.24-10.58-8.42-21.24-13.56-31.38-4.87-9.61-3.58-19-1-28.49,1-3.55,4.49-5.26,7.64-6.77C1416.87,717.35,1431.53,712.78,1445.49,714.85Z" transform="translate(97.41 0)"/><path class="cls-2" d="M950.69,497.8c-5.5,7.2-8.54,15.24-11.84,23.14-3.71,8.9-7.09,17.94-10.81,26.84-4.35,10.42-10.72,12.83-21.18,8.36-14.37-6.13-28.49-12.86-43.29-18a10.78,10.78,0,0,1-3.84-2.24c-4.3-3.87-4.25-5.22.31-8.72,15.88-12.15,31.41-24.73,45.48-39,11.47-11.6,19-25.78,26-40.31,5.48-11.25,13.09-21,26-24.44,12.46-3.29,30,.34,37.8,13.35a53.09,53.09,0,0,1,7.2,17.79c.21,1.12,0,2.54,1.29,3.05,1.61.64,2.34-.91,3.21-1.8a65,65,0,0,1,33.19-18.26c15.39-3.34,28,2.6,34.51,16.89,6.87,15,10,31,11.87,47.27,6.07,53,14.55,105.54,33.67,155.75a206.62,206.62,0,0,0,19.25,37.66c4.79,7.49,3.38,13.26-4.48,17.19-11.84,5.91-32.85,4.41-39.56-13.76-5.76-15.58-9.62-31.56-13.32-47.62-4.55-19.73-6.09-40-10-59.83-4.39-22.38-7.35-45.11-15.43-66.61-4.39-11.7-11-21.8-21.43-29.28-7.77-5.58-15.62-4-23-.41-7.09,3.45-8,11-7.56,17.77.61,8.32-.08,16.6.4,24.9a291.74,291.74,0,0,0,13.65,73.56c5.09,15.7,9.37,31.64,16.43,46.63,6.14,13,13.32,25.51,20.67,37.89,2,3.29,3.5,6.67,2.45,10.84-1.17,4.63-3.68,7.63-8.27,9-10.76,3.3-22,3.72-33,5.22-21.46,2.9-42.79,2.77-64-2.26-13.2-3.13-22.73-14.73-16.67-30.1,3.77-9.56,4.74-19.94,6.3-30.08,1.77-11.49,3.27-23,4.85-34.54.71-5.1,1.56-10.19,1.93-15.31.8-10.78,1.17-21.6,2-32.38a534.84,534.84,0,0,0,1-55.91C952.26,512.68,951.3,505.24,950.69,497.8Z" transform="translate(97.41 0)"/><path class="cls-2" d="M953.19,879.19c14-.7,26.92,1.7,39.95,5.13,14.14,3.73,18.85,13.79,20.51,26.28,2,14.76.81,29.65-.66,44.37-4.76,47.73-14.39,94.71-22.75,141.88-5.2,29.34-9.49,58.8-10.83,88.63-1.3,29-1.6,57.93-1.69,86.9,0,5.92-2,11.06-3.9,16.36-.67,1.88-2.21,2.76-4.05,3.37a29.86,29.86,0,0,1-18.18.4c-9.34-2.72-12.54-7.14-13-16.86-2.34-48.1-1.89-96.24-2.26-144.37-.19-24.8-3.93-49.45-7.26-74-5.54-40.83-14.66-80.89-28.51-119.77-4-11.33-3.8-22.89-2.65-34.54,1.12-11.38,8.24-17.37,18.73-19.94C928.81,880,941.14,878.23,953.19,879.19Z" transform="translate(97.41 0)"/><path class="cls-2" d="M743.31,614.84c-.24-18.65,3.66-36.25,6.91-53.92,1.69-9.15,4-18.19,6-27.29.3-1.38,1.16-3.18-.23-4.17-1.17-.83-2.47.54-3.62,1.11-13,6.37-26.3,12.06-40.6,15a45.63,45.63,0,0,1-14.42.54c-2.93-.34-5.68-1.42-6.41-4.67-1.58-7-3.08-14-2.32-21.17.64-6,4.85-8.27,10.26-9.05,15.15-2.19,28.57-9,41.28-16.83,15-9.26,27.38-21.61,38.53-35.26,6.63-8.12,13.61-16,20.82-23.59,6.86-7.22,17.12-8.64,24.63-4.08,8.09,4.92,11.71,14.91,8.44,24.51-4.34,12.77-11.08,24.54-15.69,37.23-8.92,24.58-17.39,49.28-22.51,75-2.26,11.33-.76,22.58,1.46,33.7,1,5.08,8.55,11.11,13.51,11.26,6.14.19,9.21-4,12.13-8.78,4.94-8.08,9.84-16.16,14.51-24.41,4-7.15,10.78-9,18.5-5.77,13.51,5.58,27,11.2,40.4,17.05,11.94,5.22,17.27,14.43,15.12,27.26-4.73,28.18-13.33,54.85-34.78,75.17-27.76,26.29-73.9,30.06-104.21-1.34-15.44-16-22.27-35.51-26.21-56.58A98.36,98.36,0,0,1,743.31,614.84Z" transform="translate(97.41 0)"/><path class="cls-2" d="M1076.73,1024.83c29,.64,48.8,12.75,62.06,35.15,21.38,36.14,15.77,71-6.41,104.56-9.11,13.8-20.43,25.54-34.86,33.75-19.56,11.13-38.88,11.23-59.29.36-27.22-14.49-36.42-39.51-40.17-66.84-4-29.25,4.91-55.84,23.4-79.17C1036.34,1033.87,1056.46,1026.74,1076.73,1024.83Z" transform="translate(97.41 0)"/><path class="cls-3" d="M849.87,359.75c11.07.18,20.13,10,19.83,21.39s-11,22.12-21.77,21.94c-11.53-.2-19.62-9.43-19.36-22.09C828.82,369.14,838.42,359.57,849.87,359.75Z" transform="translate(97.41 0)"/><path class="cls-4" d="M639.06,150c3-.74,3.81-3,5.18-4.54,13.19-15.2,29.08-25.44,49.34-28.8,28.72-4.77,40.77,15.15,41.77,36,.83,17-8.1,29.72-18.87,41.53-.34.37-.73.68-1.09,1-4,3.86-4,3.7,1.07,5.57,14,5.21,26.8,12.59,37.48,23.21a44.89,44.89,0,0,1,12.55,24c3.12,16.57-6.14,31.89-23.73,39.37-9,3.81-18.62,5-28.19,6.21-4.11.54-4.4,1.51-1.78,4.66a56.7,56.7,0,0,1,12,24.43c2.49,11.51-.8,21.35-9.43,29.43-10.05,9.42-21.52,12-34.59,7.48a83.53,83.53,0,0,1-32.64-20.58c-1.1-1.13-2-3.27-3.85-2.67s-1.16,2.85-1.32,4.41c-1.17,12.05-3.79,23.66-10.07,34.2-10.33,17.34-27.49,20.78-43,7.79-19-15.87-28.31-35.81-22.87-61.05.24-1.12.85-2.4-.08-3.33s-2.21,0-3.22.37c-11.21,4.62-23,5.5-34.85,4.67-24.17-1.68-37.19-25.56-25.94-47,6.73-12.82,17.59-21,30.07-27.54,3.19-1.66,8.48-2.45,8.88-5.49.37-2.82-5.07-3.87-7.73-6-12.11-9.76-22.61-20.57-27-36.18-9.44-33.77,22.91-50.64,44.74-45.28.81.2,1.6.47,2.41.68,8.51,2.3,8.51,2.3,7-6.56-4.52-26,6-45.54,29.65-54.85,11.58-4.56,22-2.18,30.83,6.34,11.68,11.21,15,25.92,16.72,41.2C638.74,144.9,638.85,147.2,639.06,150Z" transform="translate(97.41 0)"/><path class="cls-5" d="M431.4,142.57c-.55-11,3.9-19.7,12.39-26.48,5.19-4.15,9.41-9.43,15.15-12.94A39.58,39.58,0,0,1,476.12,97c6.85-.62,12.66,1.24,15.91,7.75s.83,12.43-3.3,17.53a70.42,70.42,0,0,1-10.55,10.59c-6.81,5.47-10.76,12.47-12.94,20.74a36.56,36.56,0,0,1-4.46,11.05c-6.51,9.83-18.46,9.69-24.35-.49C432.6,157.51,431.43,150.11,431.4,142.57Z" transform="translate(97.41 0)"/><path class="cls-6" d="M504.83,101.31c-5.64,0-10-4.23-9.88-9.56a9.47,9.47,0,0,1,9.19-9.27c5.45,0,10.46,4.65,10.53,9.86C514.75,97.39,510.44,101.32,504.83,101.31Z" transform="translate(97.41 0)"/><path class="cls-5" d="M681.25,1274.53c-18.11-.24-39.12-13.75-33.77-39.72,1.84-9,4.26-17.39,10.45-24.36a15,15,0,0,1,21.63-.91,43.16,43.16,0,0,1,9.29,14,150.76,150.76,0,0,0,9.23,17.63c2.5,4.11,4.51,8.46,4.63,13.51.26,10.89-6.5,18.53-17.49,19.49Z" transform="translate(97.41 0)"/><path class="cls-5" d="M689.88,790.07c-.78-5.29,2.57-8.43,6-10.35,8.38-4.65,17.39-7.55,27.27-5.8,4.29.76,7.61,2.94,8.92,7,1.41,4.42-.3,8.15-4,10.91-7.17,5.32-10,12.66-9.67,21.33.15,4.14-.63,7.91-4.66,9.63-4.22,1.81-7.56-.19-10.57-3.41-5.18-5.53-7.47-12.53-10.17-19.28C691.7,796.82,689.06,793.79,689.88,790.07Z" transform="translate(97.41 0)"/><path class="cls-7" d="M691.52,1180.59c.24,4.72-1.23,9.21-2,13.76-1.09,6.2-7.34,9.2-14,7a71.87,71.87,0,0,0-8.51-2.67c-3.59-.7-4-3.72-3.25-6.66a28.14,28.14,0,0,1,5.82-11.42c2.51-2.88,5-5.74,7.52-8.63s5.15-4.91,9.07-3.55,5.22,4.79,5.42,8.67C691.58,1178.26,691.52,1179.43,691.52,1180.59Z" transform="translate(97.41 0)"/><path class="cls-8" d="M683.83,1155.25c-.18-3.22,1.15-5.24,4.44-5.31,3.94-.1,5.52,2.27,5.63,6,.1,3.08-.91,5.26-4.35,5.27C685.63,1161.19,684,1158.84,683.83,1155.25Z" transform="translate(97.41 0)"/><path class="cls-9" d="M1029.69,1389.92a88.55,88.55,0,0,1,9,.62c6.31,1,9.26,6.15,7.07,12.19s-7.06,9.53-12.17,12.74c-13.09,8.21-26.49,15.88-38.9,25.19-15.49,11.62-28.94,24.95-39.08,41.55-3.35,5.5-7.44,10.21-15,9.81a14,14,0,0,1-10.4-5.13,70.28,70.28,0,0,0-17.06-14.31c-11.35-6.92-12.45-21-2.67-30.24,11.3-10.68,24.46-18.9,37.84-26.67,20.12-11.68,41.23-20.86,64.49-24.4C1018,1390.49,1023.09,1390.28,1029.69,1389.92Z" transform="translate(97.41 0)"/><path class="cls-7" d="M1198.67,1098.13c.66,4.24-1.91,7.25-5.24,9.21a42,42,0,0,0-9.13,7.62c-2.11,2.24-4.59,3.68-7.51,2.4a6.58,6.58,0,0,1-3.85-6.51c.34-9.18,2.85-17.82,8.44-25.08,4.86-6.31,12.34-4.87,15.14,2.48C1197.7,1091.34,1199,1094.46,1198.67,1098.13Z" transform="translate(97.41 0)"/><path class="cls-10" d="M1065.32,1235.83a30.18,30.18,0,0,1,8,.9c4.9,1.07,6.42,5,3.06,8.67-3,3.22-6.47,5.9-9.23,9.47s-7.82,1.83-8.82-3a41.31,41.31,0,0,0-2.34-7.53C1053.62,1238.64,1056.85,1235.65,1065.32,1235.83Z" transform="translate(97.41 0)"/><path class="cls-11" d="M1178.74,1129.74c-.28,2.36-1.41,4-4,4-2.85,0-4.28-1.62-4.21-4.33s1.74-3.72,4.27-3.69S1178.62,1127.12,1178.74,1129.74Z" transform="translate(97.41 0)"/><path class="cls-12" d="M1200.79,634.22c-4.9.39-9,1-13.15,1-8.24-.08-15.11-3-18.42-11.15-3.4-8.41-1.69-15.93,4.54-22.56a49,49,0,0,1,11.87-9c1.39-.78,3.23-1.1,3.77-3.05-4-2.06-8-4-11.45-7-5.22-4.59-8.13-10.17-6.57-17.28s6.46-10.91,12.95-13.32c3.21-1.19,8.2.15,9.4-2.78.9-2.2-2.25-5.91-3.21-9.07-2.88-9.45-2.06-18.15,5.92-25.07s17-7.73,26.57-3.72c3.68,1.54,6.77,4.06,10.2,6.11,1.64-2,.43-3.74.15-5.4-2-12.2-3.31-24.46-2.16-36.82a28.66,28.66,0,0,1,9.39-19.31c10.43-9.36,25-6.93,31.78,5.34,5.35,9.67,6.8,20.45,8.67,31.1.35,2,.37,4,.81,5.94.39,1.66-.42,4.22,1.69,4.74,1.7.41,2.43-1.93,3.49-3.13a101.89,101.89,0,0,1,16.83-15.59c4.88-3.51,10.17-5.23,15.86-2.13s7.68,8.42,7.32,14.74c-.39,6.77-2.7,13-5.34,19.13-.53,1.22-1.67,2.58-.9,3.69.89,1.29,2.45.23,3.7-.05a48.69,48.69,0,0,1,14.87-1.36c7.57.68,13.4,4.16,16.31,11.33,2.85,7,.31,13.06-4.32,18.4-6.27,7.23-14.48,11.62-23.14,15.26-1.49.63-3.27.67-4.31,2.26,1.43,1.34,3.26,1.56,5,2.12,6.35,2.13,12.42,4.78,17.52,9.3,10.85,9.62,9.39,24.55-3.19,31.82a32.5,32.5,0,0,1-17.73,4.29c-1.76-.06-3.53,0-5.93,0,2.94,3.7,5.61,6.8,8,10.12,4.07,5.64,6.78,11.81,6.85,18.94.11,11.83-8.88,18.87-20.33,15.88-6.51-1.7-12.19-5.1-18.09-9.35-.56,4,.93,7.05,1.52,10.16,1.77,9.45,2.32,18.87-.67,28.16-4.48,13.91-17.11,19-29.86,11.85-11.42-6.43-18.4-16.57-22.62-28.77-.47-1.34-.2-3.49-2-3.61-1.64-.1-2,2-2.77,3.2-4.8,7.24-10.17,13.87-19.64,14.67-13.55,1.13-24.41-9.4-25.62-24.38-.58-7.2,1.41-13.84,4.11-20.35C1199.06,638,1199.77,636.47,1200.79,634.22Z" transform="translate(97.41 0)"/><path class="cls-5" d="M1013.63,824.84c-.61-10,4.11-16.62,13.27-20.49,12.1-5.1,24.75-6.23,37.63-5.24,5.93.45,8.73,8.21,5,13.12a13.56,13.56,0,0,1-5.83,4.55c-8.89,3.57-15.08,10-19.57,18.3-2.39,4.43-5.52,8.27-10.62,10-5.28,1.77-9.88.91-13.48-3.44C1016.05,836.8,1012.94,831.56,1013.63,824.84Z" transform="translate(97.41 0)"/><path class="cls-13" d="M1081.26,801.21c2.66,0,4.23,1.3,4.46,3.8.26,2.9-1.49,4.25-4.15,4.46s-3.88-1.56-4-4A3.79,3.79,0,0,1,1081.26,801.21Z" transform="translate(97.41 0)"/><path class="cls-14" d="M1441.15,1229.16a96.69,96.69,0,0,1-2.16,18.6,44.67,44.67,0,0,1-4.25,11.68c-5.44,9.61-15.88,11.18-23.9,3.6-7.14-6.75-10.68-15.55-13.69-24.61-2.84-8.52-2.79-8.53-11.44-6.06-13,3.71-22.73-1.5-24.33-13-.67-4.84,1-9.24,3.12-13.41,4.29-8.44,6.88-17.6,12-26.29-4,.25-7.45.73-10.83.62-11.26-.36-21-9.65-20.66-19.62.27-7.61,4.65-12.73,11-16.11a86.42,86.42,0,0,1,20.3-7.84c-1.77-3.35-4.82-5.07-7.31-7.26-4.77-4.2-9.51-8.41-12.45-14.15-3.27-6.37-3.83-12.93.69-18.87s11-7.6,18.33-6.31c5.57,1,10.19,3.91,14.64,7.2,1.29,1,2.28,2.4,4.27,2.71,0-5.73-.08-11.33,0-16.93.19-11.71,1.49-23.26,5.91-34.25s11.87-17.06,20.68-16.71c9,.36,16.4,7.24,19.83,18.44,3.37,11,3.48,22.31,3.14,33.66-.09,2.83-.26,5.65-.45,9.8,3.26-4.25,5.76-7.62,8.37-10.91,4.8-6,10.1-11.55,17.37-14.66,11.78-5,22,1.59,22.61,14.4.43,9.34-2.83,17.66-6.73,25.8a133.48,133.48,0,0,1-14.49,23.27c-.87,1.14-2.18,2.07-2.33,4.31a110.76,110.76,0,0,1,18.31.13c5.3.58,10.61,1.17,15.4,3.82,9,5,10.16,13.9,2.75,20.93-4.08,3.88-9,6.16-14.33,7.82-.93.29-2.26.2-2.57,1.24-.42,1.38,1,2,1.88,2.55a87.34,87.34,0,0,1,13.37,11.2c.47.48.94.94,1.4,1.43,6.83,7.32,8.71,16.36,4.74,22.74-4.36,7-12.61,9.54-22.59,6.94-.6-.16-1.22-.23-1.83-.34-1,1.55-.06,2.69.34,3.88a42.68,42.68,0,0,1,2.54,10.64c1,14-9.22,21.9-22.6,17.31a44.25,44.25,0,0,1-19.69-14C1444.45,1231.26,1443.9,1229.45,1441.15,1229.16Z" transform="translate(97.41 0)"/><path class="cls-5" d="M1453.44,722.79a79.81,79.81,0,0,1,25.7,2.41,30.6,30.6,0,0,1,5.63,2c3.22,1.61,5.89,3.62,5.69,7.92-.19,4-2.79,5.91-5.87,7.29-6.47,2.91-13.57,3.14-20.42,4.41-8.54,1.57-16.85,3.81-24.67,7.75a9.18,9.18,0,0,0-5.45,7.06c-2.32,11.67-11.67,14.8-21.24,7.31-6.06-4.75-10.81-10.23-11.15-18.55-.3-7.5,4.69-17.53,12.64-20.89C1426.71,724.24,1439.68,723,1453.44,722.79Z" transform="translate(97.41 0)"/><path class="cls-10" d="M1436.19,789.37c-.07,3.65-5.24,10.57-8.69,11.28-5.29,1.1-7.8-2.42-9.93-6.38a43.7,43.7,0,0,1-2-4c-1.21-2.9-2.77-5.88-.62-8.94,2.37-3.35,6.23-2.71,9.12-1.92a27,27,0,0,1,10.71,5.88A4.59,4.59,0,0,1,1436.19,789.37Z" transform="translate(97.41 0)"/><path class="cls-7" d="M967.7,429.17c7.49,0,11.29,1.95,12.06,6.34,1.13,6.31-2.49,11.81-9.52,13.71-6,1.62-11.67,3.67-16.8,7.29-2.53,1.79-5.55,2.46-8.4.51-3.21-2.19-2.83-5.56-2.12-8.63C945,439.36,958.25,429.22,967.7,429.17Z" transform="translate(97.41 0)"/><path class="cls-15" d="M886.26,529.94c0,7-3.21,9.47-9.29,7.64-1.42-.43-2.77-1.11-4.2-1.47-2.95-.75-6-1.46-6.78-4.93s2-5.13,4-6.87a31.27,31.27,0,0,1,7.09-4.43,5.71,5.71,0,0,1,8.17,3.91A55,55,0,0,1,886.26,529.94Z" transform="translate(97.41 0)"/><path class="cls-16" d="M890,510.91c2.56.31,4.38,1.48,4.32,4.33-.06,2.58-1.72,3.87-4.16,3.92-2.74.06-4.37-1.39-4.32-4.21C885.89,512.37,887.55,511.22,890,510.91Z" transform="translate(97.41 0)"/><path class="cls-7" d="M904.28,914.7c0-12.1,5.22-18.81,15.68-21.48,4.34-1.11,8.64-2.47,13.24-1.6,3.35.63,6.1,2.13,7.15,5.45,1.12,3.54-.25,6.54-3.13,8.8a48.67,48.67,0,0,1-5.2,3.87c-5.43,3.21-8.69,7.89-10.54,13.89-2.21,7.2-7.93,8.32-13,2.7C905.12,922.66,904.39,918.09,904.28,914.7Z" transform="translate(97.41 0)"/><path class="cls-17" d="M942.57,893.1c-.07-2.77,1.15-4.33,4.06-4.45a6.34,6.34,0,0,1,6.59,6c.06,2.79-1.34,4.32-4.11,4.53A6.49,6.49,0,0,1,942.57,893.1Z" transform="translate(97.41 0)"/><path class="cls-18" d="M814.35,443.29c.08,6.79-8.61,16.17-15.43,16.66-5.87.42-9-4-6.23-9.44a32.14,32.14,0,0,1,10.71-12.2C808.36,435,814.28,437.84,814.35,443.29Z" transform="translate(97.41 0)"/><path class="cls-19" d="M706.57,519c-.13,3,.2,6-1.06,8.85-1,2.24-2.44,3.86-5.07,4.21-2.89.38-4.81-1-6.29-3.2-2.33-3.41-1.39-9.14,1.82-11.81,3.46-2.87,6.66-2.26,10.67,2Z" transform="translate(97.41 0)"/><path class="cls-19" d="M706.64,519.05c0-.5-.08-1-.08-1.49,0-2.54.68-4.63,3.53-5.18a3.79,3.79,0,0,1,4.17,2.06,3.87,3.87,0,0,1-.61,5c-2,2-4.15,1.57-6.24,0-.27-.19-.56-.35-.84-.53Z" transform="translate(97.41 0)"/><path class="cls-20" d="M1095.3,1114.07c-.37,10.53-4.59,18.93-13.38,24.46-7.15,4.51-15.09,5.82-22.73,1.39-8.27-4.81-12.37-12.6-12-22.09.36-10.75,4.91-19.51,14.33-25.36,8.44-5.25,16.23-4.91,23.92,1.37A26.09,26.09,0,0,1,1095.3,1114.07Z" transform="translate(97.41 0)"/><path class="cls-5" d="M1067.7,1033.62a25.76,25.76,0,0,1,8.82,1.67c5.12,1.63,7.12,7.53,4.09,12.28s-7.06,9-12.69,10.81a112.12,112.12,0,0,0-29.39,14.56,12,12,0,0,1-7.55,2.11c-6.84-.25-8.83-3-7.24-9.6s5.6-11.67,10.69-15.85a83.48,83.48,0,0,1,29.32-15.48A22.34,22.34,0,0,1,1067.7,1033.62Z" transform="translate(97.41 0)"/><path class="cls-15" d="M847.43,363.26c2.86.34,6.28.84,9.12,3.18,2.18,1.8,3,4.1,1.73,6.61s-3.81,2.72-6,1.64c-3.57-1.73-5.22-1.08-6,3-.91,4.68-4.72,7-8.72,6s-6.06-5.73-4.71-10.1C834.38,368.51,841.53,363.24,847.43,363.26Z" transform="translate(97.41 0)"/><path class="cls-21" d="M675.85,237.42c-2.21,21.34-9.12,40-29.94,49.85-16.11,7.6-31.84,5.21-46.8-4.16-17.77-11.13-28.77-34.24-23.18-56.59,7.91-31.61,38.65-50,69.14-35.75Q669,202,675.15,227.5C675.92,230.68,675.64,234.1,675.85,237.42Z" transform="translate(97.41 0)"/><path class="cls-22" d="M1256.59,613.18c-21.84.81-37.51-20.93-29-43.17,4.2-10.93,10.72-20.2,22.12-25,14.09-5.88,27.64.75,35.52,10.48,8.67,10.71,11.38,22.79,6,35.41C1284.93,605.85,1272.48,612.56,1256.59,613.18Z" transform="translate(97.41 0)"/><path class="cls-23" d="M1450.49,1157.25c-.07,19.71-13.22,35.62-29.76,35.25-19.14-.43-37.58-11.92-37.15-36.86.38-22.06,13.64-32.26,35.44-34.45C1431.66,1119.91,1451.91,1136.94,1450.49,1157.25Z" transform="translate(97.41 0)"/></svg>